<svg xmlns="http://www.w3.org/2000/svg" viewBox="0 0 80 80" fill="none">
    <path d="M7.56503 13.565C5.8007 15.3293 4.40116 17.4239 3.44631 19.7291C2.49145 22.0343 2 24.505 2 27.0001C2 29.4952 2.49145 31.9659 3.44631 34.2711C4.40116 36.5763 5.8007 38.6709 7.56503 40.4352L40 72.8702L72.435 40.4352C75.9982 36.872 78 32.0392 78 27.0001C78 21.961 75.9982 17.1282 72.435 13.565C68.8718 10.0018 64.0391 8.00005 59 8.00005C53.9608 8.00005 49.1281 10.0018 45.5649 13.565L40 19.1299L34.4352 13.565C32.6709 11.8007 30.5763 10.4012 28.2711 9.44631C25.9659 8.49146 23.4952 8 21.0001 8C18.505 8 16.0343 8.49146 13.7291 9.44631C11.4239 10.4012 9.32934 11.8007 7.56503 13.565V13.565Z" stroke="#1E40AF" stroke-width="2.4" stroke-linecap="round" stroke-linejoin="round"/>
</svg>
