<svg xmlns="http://www.w3.org/2000/svg" viewBox="0 0 80 80" fill="none">
    <path d="M31.5556 39.7778H48.4444M10.4444 22.8889H69.5556H10.4444ZM10.4444 22.8889C8.20484 22.8889 6.05696 21.9992 4.47332 20.4156C2.88968 18.8319 2 16.684 2 14.4444C2 12.2048 2.88968 10.057 4.47332 8.47332C6.05696 6.88968 8.20484 6 10.4444 6H69.5556C71.7952 6 73.943 6.88968 75.5267 8.47332C77.1103 10.057 78 12.2048 78 14.4444C78 16.684 77.1103 18.8319 75.5267 20.4156C73.943 21.9992 71.7952 22.8889 69.5556 22.8889H10.4444ZM10.4444 22.8889V65.1111C10.4444 67.3507 11.3341 69.4986 12.9178 71.0822C14.5014 72.6659 16.6493 73.5555 18.8889 73.5555H61.1111C63.3507 73.5555 65.4986 72.6659 67.0822 71.0822C68.6659 69.4986 69.5556 67.3507 69.5556 65.1111V22.8889H10.4444Z" stroke="#1E40AF" stroke-width="2.4" stroke-linecap="round" stroke-linejoin="round"/>
</svg>
