<svg xmlns="http://www.w3.org/2000/svg" viewBox="0 0 80 80" fill="none">
    <path d="M31.5556 18.6667H10.4444C8.20484 18.6667 6.05696 19.5563 4.47332 21.14C2.88968 22.7236 2 24.8715 2 27.1111V65.1111C2 67.3507 2.88968 69.4986 4.47332 71.0822C6.05696 72.6659 8.20484 73.5556 10.4444 73.5556H69.5556C71.7952 73.5556 73.943 72.6659 75.5267 71.0822C77.1103 69.4986 78 67.3507 78 65.1111V27.1111C78 24.8715 77.1103 22.7236 75.5267 21.14C73.943 19.5563 71.7952 18.6667 69.5556 18.6667H48.4444M31.5556 18.6667V14.4444C31.5556 12.2048 32.4452 10.057 34.0289 8.47332C35.6125 6.88968 37.7604 6 40 6C42.2396 6 44.3875 6.88968 45.9711 8.47332C47.5548 10.057 48.4444 12.2048 48.4444 14.4444V18.6667M31.5556 18.6667C31.5556 20.9063 32.4452 23.0542 34.0289 24.6378C35.6125 26.2214 37.7604 27.1111 40 27.1111C42.2396 27.1111 44.3875 26.2214 45.9711 24.6378C47.5548 23.0542 48.4444 20.9063 48.4444 18.6667M27.3333 52.4444C29.5729 52.4444 31.7208 51.5548 33.3045 49.9711C34.8881 48.3875 35.7778 46.2396 35.7778 44C35.7778 41.7604 34.8881 39.6125 33.3045 38.0289C31.7208 36.4452 29.5729 35.5556 27.3333 35.5556C25.0937 35.5556 22.9459 36.4452 21.3622 38.0289C19.7786 39.6125 18.8889 41.7604 18.8889 44C18.8889 46.2396 19.7786 48.3875 21.3622 49.9711C22.9459 51.5548 25.0937 52.4444 27.3333 52.4444ZM27.3333 52.4444C32.8476 52.4444 37.5384 55.97 39.2822 60.8889M27.3333 52.4444C24.7129 52.4437 22.1568 53.2554 20.0168 54.7677C17.8769 56.28 16.2585 58.4186 15.3844 60.8889M52.6667 39.7778H65.3333M52.6667 56.6667H61.1111" stroke="#1E40AF" stroke-width="2.4" stroke-linecap="round" stroke-linejoin="round"/>
</svg>
