<svg xmlns="http://www.w3.org/2000/svg" viewBox="0 0 80 80" fill="none">
    <g clip-path="url(#clip0_845_528)">
        <path d="M52.6667 18.8645C54.9063 18.8645 57.0541 19.7541 58.6378 21.3378C60.2214 22.9214 61.1111 25.0693 61.1111 27.3089L52.6667 18.8645ZM78 27.3089C78.0012 31.2659 77.0754 35.168 75.2969 38.7028C73.5184 42.2375 70.9366 45.3065 67.7584 47.6637C64.5802 50.021 60.8941 51.601 56.9953 52.2771C53.0966 52.9532 49.0936 52.7066 45.3073 51.5571L35.7778 61.0867H27.3333V69.5311H18.8889V77.9756H6.22222C5.10242 77.9756 4.02848 77.5307 3.23666 76.7389C2.44484 75.9471 2 74.8732 2 73.7534V62.8347C2.00024 61.715 2.44524 60.6412 3.23711 59.8496L28.4184 34.6682C27.3648 31.185 27.0739 27.5156 27.5657 23.9098C28.0575 20.304 29.3204 16.8465 31.2684 13.7727C33.2164 10.6988 35.8038 8.08068 38.8545 6.09655C41.9052 4.11242 45.3475 2.80884 48.9472 2.27453C52.5469 1.74023 56.2195 1.98775 59.715 3.00025C63.2105 4.01274 66.4468 5.76644 69.2036 8.14198C71.9605 10.5175 74.1731 13.4591 75.6911 16.7666C77.209 20.0741 77.9965 23.6698 78 27.3089V27.3089Z" stroke="#1E40AF" stroke-width="2.4" stroke-linecap="round" stroke-linejoin="round"/>
    </g>
    <defs>
        <clipPath id="clip0_845_528">
            <rect width="80" height="80" fill="white"/>
        </clipPath>
    </defs>
</svg>
