<svg xmlns="http://www.w3.org/2000/svg" viewBox="0 0 80 80" fill="none">
    <g clip-path="url(#clip0_845_539)">
        <path d="M44.2222 56.8889H40V40H35.7778M40 23.1111H40.0422M78 40C78 44.9902 77.0171 49.9316 75.1074 54.542C73.1977 59.1523 70.3987 63.3414 66.8701 66.8701C63.3414 70.3987 59.1523 73.1977 54.542 75.1074C49.9316 77.0171 44.9902 78 40 78C35.0098 78 30.0684 77.0171 25.458 75.1074C20.8477 73.1977 16.6586 70.3987 13.1299 66.8701C9.60132 63.3414 6.80226 59.1523 4.89258 54.542C2.9829 49.9316 2 44.9902 2 40C2 29.9218 6.00356 20.2563 13.1299 13.1299C20.2563 6.00356 29.9218 2 40 2C50.0782 2 59.7437 6.00356 66.8701 13.1299C73.9964 20.2563 78 29.9218 78 40Z" stroke="#1E40AF" stroke-width="2.4" stroke-linecap="round" stroke-linejoin="round"/>
    </g>
    <defs>
        <clipPath id="clip0_845_539">
            <rect width="80" height="80" fill="white"/>
        </clipPath>
    </defs>
</svg>
