<svg width="160" height="160" viewBox="0 0 160 160" fill="none" xmlns="http://www.w3.org/2000/svg">
<path fill-rule="evenodd" clip-rule="evenodd" d="M42.6686 14.5488C49.1012 14.0353 55.2077 11.5052 60.1186 7.31884C65.6652 2.59475 72.7129 0.000244141 79.9986 0.000244141C87.2843 0.000244141 94.332 2.59475 99.8786 7.31884C104.789 11.5052 110.896 14.0353 117.329 14.5488C124.593 15.1294 131.413 18.2785 136.566 23.4315C141.719 28.5845 144.868 35.4045 145.449 42.6688C145.959 49.0988 148.489 55.2088 152.679 60.1188C157.403 65.6655 159.997 72.7131 159.997 79.9988C159.997 87.2846 157.403 94.3322 152.679 99.8788C148.492 104.79 145.962 110.896 145.449 117.329C144.868 124.593 141.719 131.413 136.566 136.566C131.413 141.719 124.593 144.868 117.329 145.449C110.896 145.962 104.789 148.493 99.8786 152.679C94.332 157.403 87.2843 159.997 79.9986 159.997C72.7129 159.997 65.6652 157.403 60.1186 152.679C55.2077 148.493 49.1012 145.962 42.6686 145.449C35.4043 144.868 28.5843 141.719 23.4313 136.566C18.2782 131.413 15.1292 124.593 14.5486 117.329C14.035 110.896 11.5049 104.79 7.3186 99.8788C2.59451 94.3322 0 87.2846 0 79.9988C0 72.7131 2.59451 65.6655 7.3186 60.1188C11.5049 55.208 14.035 49.1014 14.5486 42.6688C15.1292 35.4045 18.2782 28.5845 23.4313 23.4315C28.5843 18.2785 35.4043 15.1294 42.6686 14.5488ZM117.069 67.0688C118.89 65.1828 119.898 62.6568 119.875 60.0348C119.853 57.4129 118.801 54.9047 116.947 53.0507C115.093 51.1966 112.585 50.1449 109.963 50.1221C107.341 50.0993 104.815 51.1073 102.929 52.9288L69.9986 85.8588L57.0686 72.9288C55.1826 71.1073 52.6565 70.0993 50.0346 70.1221C47.4126 70.1449 44.9045 71.1966 43.0504 73.0507C41.1963 74.9047 40.1446 77.4129 40.1218 80.0348C40.0991 82.6568 41.107 85.1828 42.9286 87.0688L62.9286 107.069C64.8039 108.944 67.347 109.997 69.9986 109.997C72.6502 109.997 75.1933 108.944 77.0686 107.069L117.069 67.0688Z" fill="#E5E7EB"/>
</svg>
