<svg width="454" height="292" viewBox="0 0 454 292" fill="none" xmlns="http://www.w3.org/2000/svg">
<path fill-rule="evenodd" clip-rule="evenodd" d="M444.558 0.738163L453.587 53.0738L437.748 49.3186L441.319 14.3099L428.7 47.1597L412.872 43.3592L444.558 0.738163ZM431.781 64.6169C432.51 61.7001 433.053 59.4052 433.414 57.837C433.594 57.0529 433.73 56.4505 433.82 56.0428C433.865 55.839 433.899 55.6839 433.922 55.5791L433.948 55.4599L433.954 55.429L433.956 55.4207L433.957 55.4185L433.957 55.4178L433.957 55.4175C433.957 55.4175 433.957 55.4175 433.753 55.3739L432.001 55L430.219 54.6197L430.045 54.5825L430.045 54.5828L430.045 54.5841L430.043 54.5905L430.037 54.6176L430.013 54.7292C429.992 54.8289 429.959 54.9788 429.915 55.1774C429.827 55.5745 429.694 56.1661 429.516 56.939C429.16 58.4848 428.623 60.7559 427.9 63.6474L431.781 64.6169ZM424.152 92.0369C426.239 85.1923 427.982 79.0332 429.392 73.8052L425.53 72.7638C424.13 77.9541 422.399 84.0713 420.326 90.8704L424.152 92.0369ZM185.721 75.203C179.029 74.0484 172.355 73.876 165.951 74.6632L166.439 78.6333C172.441 77.8957 178.72 78.0543 185.041 79.1448L185.721 75.203ZM156.216 76.6657C149.735 78.5694 143.707 81.5604 138.452 85.6134L140.895 88.7807C145.73 85.0513 151.305 82.277 157.343 80.5036L156.216 76.6657ZM213.224 85.8688C207.473 82.2434 201.448 79.4761 195.342 77.5465L194.136 81.3605C199.916 83.187 205.629 85.8096 211.091 89.2527L213.224 85.8688ZM234.917 105.764C230.742 100.338 226.131 95.6289 221.221 91.6231L218.692 94.7223C223.362 98.5325 227.759 103.02 231.747 108.203L234.917 105.764ZM131.175 92.5045C126.981 97.3789 123.657 103.186 121.468 109.88L125.27 111.124C127.297 104.925 130.362 99.5827 134.207 95.1134L131.175 92.5045ZM415.207 119.028C417.452 112.776 419.486 106.757 421.315 101.083L417.508 99.8558C415.692 105.492 413.671 111.469 411.443 117.676L415.207 119.028ZM249.021 131.505C246.623 125.077 243.75 119.204 240.492 113.879L237.08 115.967C240.2 121.067 242.962 126.708 245.273 132.903L249.021 131.505ZM119.208 119.564C118.743 122.727 118.501 126.04 118.501 129.5C118.501 132.917 118.751 136.374 119.235 139.855L123.197 139.304C122.737 135.994 122.501 132.721 122.501 129.5C122.501 126.226 122.73 123.108 123.166 120.147L119.208 119.564ZM404.873 145.548C407.395 139.584 409.744 133.685 411.924 127.931L408.183 126.514C406.02 132.225 403.689 138.077 401.189 143.991L404.873 145.548ZM255.835 159.982C254.992 153.177 253.709 146.79 252.043 140.816L248.19 141.89C249.801 147.666 251.046 153.858 251.865 160.474L255.835 159.982ZM121.281 150.011C122.972 156.458 125.397 162.94 128.464 169.363L132.073 167.64C129.104 161.419 126.77 155.173 125.151 148.996L121.281 150.011ZM392.941 171.397C395.817 165.7 398.533 159.961 401.09 154.246L397.439 152.612C394.905 158.275 392.216 163.958 389.37 169.594L392.941 171.397ZM257.001 179.5C257.001 176.156 256.905 172.895 256.718 169.716L252.725 169.951C252.907 173.05 253.001 176.233 253.001 179.5C253.001 182.923 252.894 186.243 252.683 189.464L256.675 189.725C256.891 186.414 257.001 183.006 257.001 179.5ZM133.248 178.452C136.578 184.237 140.405 189.941 144.662 195.492L147.837 193.058C143.679 187.637 139.951 182.079 136.715 176.457L133.248 178.452ZM379.041 196.287C382.372 190.918 385.54 185.407 388.548 179.822L385.027 177.925C382.053 183.445 378.926 188.885 375.642 194.179L379.041 196.287ZM251.022 219.824C253.08 213.655 254.631 207.018 255.636 199.887L251.675 199.329C250.701 206.236 249.204 212.635 247.227 218.558L251.022 219.824ZM151.139 203.438C155.543 208.532 160.304 213.463 165.367 218.168L168.09 215.238C163.132 210.629 158.471 205.804 154.165 200.822L151.139 203.438ZM362.622 219.67C366.551 214.772 370.303 209.621 373.881 204.288L370.559 202.06C367.038 207.308 363.353 212.367 359.502 217.166L362.622 219.67ZM173.048 224.94C178.259 229.298 183.732 233.416 189.416 237.236L191.647 233.917C186.081 230.175 180.72 226.141 175.614 221.872L173.048 224.94ZM349.915 233.914C352.148 231.682 354.331 229.361 356.465 226.962L353.477 224.303C351.391 226.647 349.261 228.911 347.087 231.086C344.681 233.492 342.229 235.739 339.737 237.833L342.311 240.896C344.893 238.726 347.429 236.4 349.915 233.914ZM236.611 246.955C240.748 241.663 244.319 235.817 247.264 229.378L243.627 227.714C240.81 233.871 237.402 239.448 233.459 244.492L236.611 246.955ZM198.065 242.721C203.945 246.232 210.012 249.419 216.214 252.224L217.863 248.579C211.804 245.839 205.871 242.723 200.115 239.287L198.065 242.721ZM316.09 257.193C322.254 254.535 328.279 251.211 334.113 247.166L331.835 243.879C326.217 247.773 320.425 250.968 314.506 253.52L316.09 257.193ZM213.805 267.537C218.744 264.359 223.339 260.81 227.548 256.862C233.389 259.002 239.321 260.791 245.302 262.182L246.208 258.286C240.013 256.845 233.862 254.963 227.803 252.69L226.962 251.855C222.375 256.472 217.25 260.563 211.641 264.173L213.805 267.537ZM286.212 264.988C293.021 264.258 299.773 262.882 306.409 260.793L305.208 256.977C298.835 258.984 292.342 260.308 285.785 261.011L286.212 264.988ZM255.394 264.138C262.218 265.193 269.079 265.705 275.916 265.607L275.859 261.608C269.26 261.702 262.623 261.208 256.005 260.185L255.394 264.138ZM186.117 280.594C192.745 278.357 199.037 275.728 204.936 272.666L203.093 269.116C197.395 272.074 191.294 274.625 184.838 276.804L186.117 280.594ZM0.000923097 279.945C-0.562862 281.864 -0.562683 281.864 -0.562493 281.864L-0.56206 281.864L-0.561002 281.864L-0.558113 281.865L-0.549248 281.868L-0.519145 281.877C-0.493572 281.884 -0.456981 281.894 -0.40932 281.908C-0.313998 281.935 -0.174395 281.973 0.00990498 282.023C0.378506 282.122 0.925893 282.266 1.6554 282.445C3.11443 282.804 5.30192 283.308 8.24458 283.896L9.02855 279.974C6.14279 279.397 4.01246 278.906 2.61077 278.561C1.90992 278.389 1.39123 278.253 1.05134 278.161C0.881391 278.115 0.756144 278.08 0.675179 278.058C0.634697 278.046 0.605285 278.038 0.58689 278.033L0.567555 278.027L0.564404 278.026C0.56455 278.026 0.564708 278.026 0.000923097 279.945ZM156.481 287.799C163.344 286.673 169.985 285.265 176.36 283.546L175.319 279.684C169.087 281.365 162.579 282.745 155.833 283.852L156.481 287.799ZM17.0653 285.487C21.9183 286.279 27.8066 287.116 34.7714 287.907L35.2225 283.932C28.3214 283.149 22.4975 282.32 17.7094 281.539L17.0653 285.487ZM43.6609 288.828C49.0614 289.337 54.9814 289.806 61.4341 290.204L61.6804 286.211C55.2701 285.816 49.3932 285.351 44.036 284.846L43.6609 288.828ZM126.246 290.978C133.133 290.608 139.875 290.034 146.44 289.232L145.954 285.261C139.489 286.052 132.838 286.618 126.032 286.983L126.246 290.978ZM70.3416 290.689C75.9274 290.955 81.8634 291.165 88.1567 291.305L88.2457 287.306C81.9857 287.167 76.0833 286.957 70.5315 286.694L70.3416 290.689ZM106.001 291.5C109.404 291.5 112.781 291.459 116.129 291.374L116.028 287.376C112.715 287.459 109.372 287.5 106.001 287.5C102.967 287.5 100.003 287.484 97.1082 287.452L97.0649 291.452C99.9739 291.484 102.952 291.5 106.001 291.5Z" fill="#BFDBFE"/>
</svg>
