<svg width="200" height="200" viewBox="0 0 200 200" fill="none" xmlns="http://www.w3.org/2000/svg">
<path fill-rule="evenodd" clip-rule="evenodd" d="M100.001 20C89.392 20 79.2179 24.2143 71.7164 31.7157C64.215 39.2172 60.0007 49.3913 60.0007 60V70H50.0007C47.5389 69.9998 45.1635 70.9078 43.3294 72.5499C41.4954 74.1921 40.3315 76.4531 40.0607 78.9L30.0607 168.9C29.906 170.298 30.0478 171.712 30.4768 173.051C30.9058 174.39 31.6124 175.624 32.5504 176.671C33.4884 177.719 34.6368 178.556 35.9205 179.13C37.2043 179.704 38.5946 180 40.0007 180H160.001C161.407 180 162.797 179.704 164.081 179.13C165.365 178.556 166.513 177.719 167.451 176.671C168.389 175.624 169.096 174.39 169.525 173.051C169.954 171.712 170.095 170.298 169.941 168.9L159.941 78.9C159.67 76.4531 158.506 74.1921 156.672 72.5499C154.838 70.9078 152.462 69.9998 150.001 70H140.001V60C140.001 49.3913 135.786 39.2172 128.285 31.7157C120.783 24.2143 110.609 20 100.001 20ZM120.001 70V60C120.001 54.6957 117.894 49.6086 114.143 45.8579C110.392 42.1071 105.305 40 100.001 40C94.6963 40 89.6093 42.1071 85.8585 45.8579C82.1078 49.6086 80.0007 54.6957 80.0007 60V70H120.001ZM60.0007 100C60.0007 97.3478 61.0542 94.8043 62.9296 92.9289C64.805 91.0536 67.3485 90 70.0007 90C72.6528 90 75.1964 91.0536 77.0717 92.9289C78.9471 94.8043 80.0007 97.3478 80.0007 100C80.0007 102.652 78.9471 105.196 77.0717 107.071C75.1964 108.946 72.6528 110 70.0007 110C67.3485 110 64.805 108.946 62.9296 107.071C61.0542 105.196 60.0007 102.652 60.0007 100ZM130.001 90C127.349 90 124.805 91.0536 122.93 92.9289C121.054 94.8043 120.001 97.3478 120.001 100C120.001 102.652 121.054 105.196 122.93 107.071C124.805 108.946 127.349 110 130.001 110C132.653 110 135.196 108.946 137.072 107.071C138.947 105.196 140.001 102.652 140.001 100C140.001 97.3478 138.947 94.8043 137.072 92.9289C135.196 91.0536 132.653 90 130.001 90Z" fill="#E5E7EB"/>
</svg>
